<svg xmlns="http://www.w3.org/2000/svg"  viewBox="0 0 48 48" width="48px" height="48px"><path d="M 17.853516 3.9824219 A 1.50015 1.50015 0 0 0 16.675781 4.4785156 L 6.8730469 12.361328 A 1.50015 1.50015 0 0 0 6.0605469 13.810547 L 4.0722656 25.552734 A 1.50015 1.50015 0 0 0 4.2734375 27 L 10.230469 38.816406 A 1.50015 1.50015 0 0 0 11.533203 39.923828 L 23.193359 43.8125 A 1.50015 1.50015 0 0 0 24 44.039062 A 1.50015 1.50015 0 0 0 24.806641 43.8125 L 36.519531 39.90625 A 1.50015 1.50015 0 0 0 37.748047 38.859375 L 43.619141 27.117188 A 1.50015 1.50015 0 0 0 43.972656 25.71875 L 41.919922 13.6875 A 1.50015 1.50015 0 0 0 41.603516 12.775391 A 1.50015 1.50015 0 0 0 41.527344 12.683594 A 1.50015 1.50015 0 0 0 41.521484 12.677734 A 1.50015 1.50015 0 0 0 41.154297 12.380859 L 31.326172 4.4804688 A 1.50015 1.50015 0 0 0 30.251953 3.9824219 A 1.50015 1.50015 0 0 0 29.986328 4 L 18.023438 4 A 1.50015 1.50015 0 0 0 17.853516 3.9824219 z M 20.453125 7 L 27.546875 7 L 24 12.892578 L 20.453125 7 z M 17.402344 7.7441406 L 21.117188 13.917969 L 11.287109 12.660156 L 17.402344 7.7441406 z M 30.599609 7.7441406 L 36.712891 12.660156 L 26.882812 13.917969 L 30.599609 7.7441406 z M 10.800781 15.621094 L 21.705078 17.017578 L 17.583984 25.199219 L 10.800781 15.621094 z M 37.179688 15.625 L 30.380859 25.128906 L 26.294922 17.017578 L 37.179688 15.625 z M 39.527344 17.498047 L 40.785156 24.859375 L 33.404297 26.058594 L 39.527344 17.498047 z M 8.4726562 17.529297 L 14.505859 26.044922 L 7.2304688 24.861328 L 8.4726562 17.529297 z M 24 19.132812 L 27.763672 26.599609 L 20.236328 26.599609 L 24 19.132812 z M 8.1640625 28.052734 L 15.390625 29.226562 L 11.806641 35.277344 L 8.1640625 28.052734 z M 39.792969 28.058594 L 36.177734 35.289062 L 32.535156 29.240234 L 39.792969 28.058594 z M 20.078125 29.599609 L 27.921875 29.599609 L 24 38.707031 L 20.078125 29.599609 z M 17.587891 31.400391 L 21.298828 40.017578 L 13.9375 37.564453 L 17.587891 31.400391 z M 30.380859 31.474609 L 34.048828 37.568359 L 26.701172 40.017578 L 30.380859 31.474609 z"/></svg>